<!-- Generated by IcoMoon.io -->
<svg version="1.1" xmlns="http://www.w3.org/2000/svg" width="1024" height="1024" viewBox="0 0 1024 1024">
<g id="icomoon-ignore">
</g>
<path d="M930.632 10.045h-128.307c-39.588 0-71.68 31.447-71.68 70.246v125.737c0 38.799 32.092 70.252 71.68 70.252h128.307c39.588 0 71.685-31.452 71.685-70.246v-125.747c0-38.799-32.097-70.246-71.685-70.246zM215.373 737.28h-138.173c-42.634 0-77.199 31.452-77.199 70.252v125.737c0 38.799 34.56 70.252 77.199 70.252h138.173c42.634 0 77.199-31.452 77.199-70.252v-125.737c0-38.799-34.56-70.252-77.199-70.252zM199.987 370.616h-128.307c-39.583 0-71.68 31.452-71.68 70.252v125.737c0 38.799 32.102 70.252 71.69 70.252h128.297c39.593 0 71.685-31.452 71.685-70.252v-125.737c0-38.799-32.092-70.246-71.685-70.246zM568.509 735.304h-128.307c-39.583 0-71.68 31.447-71.68 70.246l-0.010 125.737c0 38.799 32.113 70.257 71.7 70.257h128.297c39.593 0 71.685-31.457 71.685-70.257v-125.737c0-38.799-32.092-70.246-71.685-70.246zM199.987 2.765h-128.307c-39.578 0-71.68 31.442-71.68 70.246v125.737c0 38.799 32.102 70.252 71.69 70.252h128.297c39.593 0 71.685-31.452 71.685-70.252v-125.737c0-38.799-32.092-70.246-71.685-70.246zM578.427 374.323h-128.302c-39.588 0-71.68 31.447-71.68 70.246v125.737c0 38.799 32.102 70.252 71.69 70.252h128.292c39.593 0 71.685-31.452 71.685-70.252v-125.737c0-38.799-32.092-70.246-71.685-70.246zM938.665 735.304h-128.302c-39.588 0-71.685 31.447-71.685 70.246v125.737c0 38.799 32.102 70.257 71.695 70.257h128.292c39.593 0 71.69-31.457 71.69-70.257v-125.737c0-38.799-32.097-70.246-71.69-70.246zM562.898 7.158h-128.302c-39.588 0-71.68 31.452-71.68 70.252v125.737c0 38.799 32.102 70.252 71.685 70.252h128.297c39.593 0 71.685-31.478 71.685-70.277v-125.706c0-38.799-32.092-70.246-71.685-70.246zM929.398 381.624h-128.302c-39.588 0-71.685 31.452-71.685 70.252v125.737c0 38.799 32.102 70.252 71.695 70.252h128.292c39.593 0 71.69-31.452 71.69-70.252v-125.737c0-38.799-32.097-70.246-71.69-70.246z"></path>
</svg>
